<svg width="82" height="73" viewBox="0 0 82 73" fill="none" xmlns="http://www.w3.org/2000/svg">
<path d="M82 72.0408L0.639999 7.62939e-06L82 7.62939e-06L82 72.0408Z" fill="#F8475F"/>
<path d="M47.6147 29.3852C46.4624 29.3852 45.4599 29.1317 44.6071 28.6247C43.7659 28.1177 43.1149 27.3975 42.6539 26.4641C42.193 25.5307 41.9625 24.4302 41.9625 23.1627C41.9625 21.8836 42.1872 20.7773 42.6367 19.844C43.0976 18.8991 43.7544 18.1789 44.6071 17.6834C45.4599 17.1763 46.4624 16.9228 47.6147 16.9228C48.7786 16.9228 49.7868 17.1763 50.6396 17.6834C51.4923 18.1789 52.1434 18.8991 52.5928 19.844C53.0537 20.7773 53.2842 21.8778 53.2842 23.1454C53.2842 24.4129 53.0537 25.5192 52.5928 26.4641C52.1434 27.3975 51.4923 28.1177 50.6396 28.6247C49.7868 29.1317 48.7786 29.3852 47.6147 29.3852ZM47.6147 27.9333C48.8362 27.9333 49.7868 27.5185 50.4667 26.6888C51.1466 25.8591 51.4865 24.678 51.4865 23.1454C51.4865 21.6128 51.1466 20.4374 50.4667 19.6193C49.7984 18.7896 48.8477 18.3747 47.6147 18.3747C46.4048 18.3747 45.4599 18.7896 44.78 19.6193C44.1116 20.4374 43.7775 21.6128 43.7775 23.1454C43.7775 24.678 44.1116 25.8591 44.78 26.6888C45.4599 27.5185 46.4048 27.9333 47.6147 27.9333ZM56.5939 29.3334C56.3289 29.3334 56.1157 29.2527 55.9544 29.0914C55.7931 28.9185 55.7124 28.6996 55.7124 28.4346V17.9253C55.7124 17.6603 55.7873 17.4529 55.9371 17.3031C56.0984 17.1418 56.3174 17.0611 56.5939 17.0611H62.7819C63.3351 17.0611 63.6116 17.3031 63.6116 17.7871C63.6116 18.271 63.3351 18.513 62.7819 18.513H57.4755V22.333H62.4362C62.9894 22.333 63.2659 22.575 63.2659 23.059C63.2659 23.5429 62.9894 23.7849 62.4362 23.7849H57.4755V28.4346C57.4755 28.7111 57.3948 28.9301 57.2335 29.0914C57.0837 29.2527 56.8705 29.3334 56.5939 29.3334ZM66.2829 29.3334C66.0179 29.3334 65.8047 29.2527 65.6434 29.0914C65.4821 28.9185 65.4014 28.6996 65.4014 28.4346V17.9253C65.4014 17.6603 65.4763 17.4529 65.6261 17.3031C65.7874 17.1418 66.0064 17.0611 66.2829 17.0611H72.4709C73.024 17.0611 73.3006 17.3031 73.3006 17.7871C73.3006 18.271 73.024 18.513 72.4709 18.513H67.1645V22.333H72.1252C72.6783 22.333 72.9549 22.575 72.9549 23.059C72.9549 23.5429 72.6783 23.7849 72.1252 23.7849H67.1645V28.4346C67.1645 28.7111 67.0838 28.9301 66.9225 29.0914C66.7727 29.2527 66.5595 29.3334 66.2829 29.3334Z" fill="white"/>
</svg>
